<?xml version="1.0" ?><!DOCTYPE svg  PUBLIC '-//W3C//DTD SVG 1.1//EN'  'http://www.w3.org/Graphics/SVG/1.1/DTD/svg11.dtd'><svg height="512px" style="enable-background:new 0 0 512 512;" version="1.1" viewBox="0 0 512 512" width="512px" xml:space="preserve" xmlns="http://www.w3.org/2000/svg" xmlns:xlink="http://www.w3.org/1999/xlink"><g id="_x34_3_x2C__Gmail"><g><path d="M448.5,31c13.811,0,25,11.19,25,25s-11.189,25-25,25c-13.81,0-25-11.19-25-25S434.69,31,448.5,31z" style="fill:#FFFFFF;"/><path d="M113.5,441c11.05,0,20,8.95,20,20s-8.95,20-20,20c-11.04,0-20-8.95-20-20S102.46,441,113.5,441z" style="fill:#FFFFFF;"/><path d="M40.24,131.22l58.26,47.4V416h-12c-26.51,0-48-21.49-48-48V144c0-4.43,0.6-8.71,1.72-12.78H40.24z" style="fill:#9BC9FF;"/><path d="M468.5,144.83V368c0,26.51-21.49,48-48,48h-12V195.9L468.5,144.83z" style="fill:#9BC9FF;"/><path d="M468.5,144v0.83l-60,51.07L267.391,316L98.5,178.62l-58.26-47.4h-0.02    C45.82,110.91,64.42,96,86.5,96h19.73L261,226L415.77,96h4.73C447.01,96,468.5,117.49,468.5,144z" style="fill:#9BC9FF;"/><polygon points="408.5,195.9 408.5,416 98.5,416 98.5,178.62 267.391,316   " style="fill:#FFFFFF;"/><polygon points="415.77,96 261,226 106.23,96   " style="fill:#FFFFFF;"/><circle cx="441" cy="448.5" r="7.5" style="fill:#1E81CE;"/><circle cx="351" cy="58.5" r="7.5" style="fill:#1E81CE;"/><circle cx="301" cy="443.5" r="7.5" style="fill:#1E81CE;"/><circle cx="226" cy="38.5" r="7.5" style="fill:#1E81CE;"/><circle cx="176" cy="463.5" r="7.5" style="fill:#1E81CE;"/><circle cx="141" cy="73.5" r="7.5" style="fill:#1E81CE;"/><path d="M448.5,86c-16.542,0-30-13.458-30-30s13.458-30,30-30s30,13.458,30,30S465.042,86,448.5,86z     M448.5,36c-11.027,0-20,8.972-20,20s8.973,20,20,20s20-8.972,20-20S459.527,36,448.5,36z" style="fill:#1E81CE;"/><path d="M113.5,486c-13.785,0-25-11.215-25-25s11.215-25,25-25s25,11.215,25,25S127.285,486,113.5,486z     M113.5,446c-8.271,0-15,6.729-15,15s6.729,15,15,15s15-6.729,15-15S121.771,446,113.5,446z" style="fill:#1E81CE;"/><path d="M98.5,421c-2.761,0-5-2.238-5-5V178.62c0-2.761,2.239-5,5-5s5,2.239,5,5V416    C103.5,418.762,101.261,421,98.5,421z" style="fill:#1E81CE;"/><path d="M408.5,421c-2.762,0-5-2.238-5-5V195.9c0-2.761,2.238-5,5-5s5,2.239,5,5V416    C413.5,418.762,411.262,421,408.5,421z" style="fill:#1E81CE;"/><path d="M420.5,421h-334c-29.224,0-53-23.775-53-53V144c0-4.781,0.639-9.527,1.899-14.106    C41.714,106.993,62.727,91,86.5,91h334c29.225,0,53,23.776,53,53v224C473.5,397.225,449.725,421,420.5,421z M86.5,101    c-19.289,0-36.338,12.974-41.459,31.549C44.019,136.262,43.5,140.115,43.5,144v224c0,23.71,19.29,43,43,43h334    c23.711,0,43-19.29,43-43V144c0-23.71-19.289-43-43-43H86.5z" style="fill:#1E81CE;"/><path d="M261,231c-1.143,0-2.286-0.391-3.216-1.171l-154.77-130c-2.115-1.776-2.389-4.93-0.613-7.044    s4.93-2.389,7.044-0.613L261,219.47L412.555,92.171c2.114-1.777,5.268-1.503,7.044,0.613c1.776,2.114,1.502,5.269-0.612,7.044    l-154.771,130C263.286,230.609,262.143,231,261,231z" style="fill:#1E81CE;"/><path d="M267.391,321c-1.117,0-2.236-0.373-3.156-1.121l-168.89-137.38l-58.26-47.4    c-2.142-1.743-2.466-4.892-0.723-7.034c1.743-2.142,4.892-2.466,7.034-0.723l58.259,47.4l165.663,134.754L465.26,141.022    c2.102-1.79,5.259-1.536,7.048,0.567c1.79,2.103,1.536,5.258-0.567,7.048l-201.109,171.17    C269.697,320.602,268.545,321,267.391,321z" style="fill:#1E81CE;"/></g></g><g id="Layer_1"/></svg>