<?xml version="1.0" ?><svg data-name="Layer 1" id="Layer_1" viewBox="0 0 32 32" xmlns="http://www.w3.org/2000/svg"><defs><style>.cls-1{fill:#c939e2;}</style></defs><title/><path class="cls-1" d="M23.06,29.44a2.61,2.61,0,0,1-1.21-.3l-5.52-2.9a.7.7,0,0,0-.66,0l-5.52,2.9A2.59,2.59,0,0,1,6.4,26.42l1-6.15a.71.71,0,0,0-.21-.63L2.78,15.29a2.56,2.56,0,0,1-.65-2.65,2.54,2.54,0,0,1,2.08-1.76l6.17-.9a.69.69,0,0,0,.54-.39L13.68,4a2.59,2.59,0,0,1,4.64,0h0l2.76,5.59a.69.69,0,0,0,.54.39l6.17.9a2.54,2.54,0,0,1,2.08,1.76,2.56,2.56,0,0,1-.65,2.65l-4.47,4.35a.73.73,0,0,0-.2.63l1.05,6.15a2.6,2.6,0,0,1-2.54,3ZM16,4.43a.68.68,0,0,0-.64.4L12.6,10.41a2.59,2.59,0,0,1-1.95,1.42l-6.17.9a.7.7,0,0,0-.58.48.71.71,0,0,0,.19.74L8.55,18.3a2.57,2.57,0,0,1,.74,2.29l-1,6.14a.69.69,0,0,0,.28.7.72.72,0,0,0,.76.06l5.52-2.9a2.55,2.55,0,0,1,2.4,0l5.52,2.9a.72.72,0,0,0,.76-.06.69.69,0,0,0,.28-.7l-1.05-6.14a2.57,2.57,0,0,1,.74-2.29L27.91,14a.71.71,0,0,0,.19-.74.69.69,0,0,0-.58-.48l-6.17-.9a2.59,2.59,0,0,1-2-1.42L16.64,4.83h0A.68.68,0,0,0,16,4.43Z"/></svg>